# xmcd
#
# Track frame offsets:
#	150
#	10908
#	22277
#	34414
#	45343
#	55634
#	66860
#	76041
#	86124
#	97122
#	106958
#	116837
#	130108
#	144022
#	160226
#	171526
#	186622
#	200246
#
# Disc length: 2831 seconds
#
# Revision: 2
# Processed by: cddbd v1.5.1PL0 Copyright (c) Steve Scherf et al.
# Submitted via: audiograbber 1.83.01
#
DISCID=010b0d12
DTITLE=Compilation - Country and Western Highlights - CD1
DYEAR=2004
DGENRE=Country
TTITLE0=Dave Dudley - You don't have to be a baby to cry
TTITLE1=Bobby Bare - Footprints in the sand of time
TTITLE2=David Price - I need a friend
TTITLE3=Ferlin Husky - The wings of a dove
TTITLE4=Linda Manning - Bonjour Tristesse (Hello Sadness)
TTITLE5=Freddy Quinn - Jambalaya
TTITLE6=Buddy Meredith - Coming back in style
TTITLE7=Bud Logan - I was on my way
TTITLE8=Freddy Quinn - Some broken hearts never mend
TTITLE9=Rick Johnson - Please, don't love me
TTITLE10=Ronnie Rogers - The fool in the stool
TTITLE11=George Kent - Mama bake a pie, Daddy kill a chicken
TTITLE12=Dave Dudley - Think I'll send him some roses
TTITLE13=Tom Stewart - The best I can do
TTITLE14=Barbara Perry - I'll hold you closer than love
TTITLE15=Bobby Bare - For the good times (Lay your head upon my pillow)
TTITLE16=Billy Grammer - The hour of separation
TTITLE17=Rick Pilgreen - How come it took so long to say goodbye
EXTD=
EXTT0=
EXTT1=
EXTT2=
EXTT3=
EXTT4=
EXTT5=
EXTT6=
EXTT7=
EXTT8=
EXTT9=
EXTT10=
EXTT11=
EXTT12=
EXTT13=
EXTT14=
EXTT15=
EXTT16=
EXTT17=
PLAYORDER=
